<svg width="146" height="29" viewBox="0 0 146 29" fill="none" xmlns="http://www.w3.org/2000/svg">
<path d="M2.5 25.5L12 13.5L18.5 18L28.5 4" stroke="#81C784" stroke-width="4"/>
<path d="M51.592 13.76H59.656V16.88H51.592V13.76ZM51.88 23H47.992V6.2H60.688V9.32H51.88V23ZM63.0561 23V10.088H66.8001V23H63.0561ZM64.9281 8.288C64.2401 8.288 63.6801 8.088 63.2481 7.688C62.8161 7.288 62.6001 6.792 62.6001 6.2C62.6001 5.608 62.8161 5.112 63.2481 4.712C63.6801 4.312 64.2401 4.112 64.9281 4.112C65.6161 4.112 66.1761 4.304 66.6081 4.688C67.0401 5.056 67.2561 5.536 67.2561 6.128C67.2561 6.752 67.0401 7.272 66.6081 7.688C66.1921 8.088 65.6321 8.288 64.9281 8.288ZM78.1229 9.896C79.1469 9.896 80.0589 10.104 80.8589 10.52C81.6749 10.92 82.3149 11.544 82.7789 12.392C83.2429 13.224 83.4749 14.296 83.4749 15.608V23H79.7309V16.184C79.7309 15.144 79.4989 14.376 79.0349 13.88C78.5869 13.384 77.9469 13.136 77.1149 13.136C76.5229 13.136 75.9869 13.264 75.5069 13.52C75.0429 13.76 74.6749 14.136 74.4029 14.648C74.1469 15.16 74.0189 15.816 74.0189 16.616V23H70.2749V10.088H73.8509V13.664L73.1789 12.584C73.6429 11.72 74.3069 11.056 75.1709 10.592C76.0349 10.128 77.0189 9.896 78.1229 9.896ZM94.7886 23V20.48L94.5486 19.928V15.416C94.5486 14.616 94.3006 13.992 93.8046 13.544C93.3246 13.096 92.5806 12.872 91.5726 12.872C90.8846 12.872 90.2046 12.984 89.5326 13.208C88.8766 13.416 88.3166 13.704 87.8526 14.072L86.5086 11.456C87.2126 10.96 88.0606 10.576 89.0526 10.304C90.0446 10.032 91.0526 9.896 92.0766 9.896C94.0446 9.896 95.5726 10.36 96.6606 11.288C97.7486 12.216 98.2926 13.664 98.2926 15.632V23H94.7886ZM90.8526 23.192C89.8446 23.192 88.9806 23.024 88.2606 22.688C87.5406 22.336 86.9886 21.864 86.6046 21.272C86.2206 20.68 86.0286 20.016 86.0286 19.28C86.0286 18.512 86.2126 17.84 86.5806 17.264C86.9646 16.688 87.5646 16.24 88.3806 15.92C89.1966 15.584 90.2606 15.416 91.5726 15.416H95.0046V17.6H91.9806C91.1006 17.6 90.4926 17.744 90.1566 18.032C89.8366 18.32 89.6766 18.68 89.6766 19.112C89.6766 19.592 89.8606 19.976 90.2286 20.264C90.6126 20.536 91.1326 20.672 91.7886 20.672C92.4126 20.672 92.9726 20.528 93.4686 20.24C93.9646 19.936 94.3246 19.496 94.5486 18.92L95.1246 20.648C94.8526 21.48 94.3566 22.112 93.6366 22.544C92.9166 22.976 91.9886 23.192 90.8526 23.192ZM109.529 9.896C110.553 9.896 111.465 10.104 112.265 10.52C113.081 10.92 113.721 11.544 114.185 12.392C114.649 13.224 114.881 14.296 114.881 15.608V23H111.137V16.184C111.137 15.144 110.905 14.376 110.441 13.88C109.993 13.384 109.353 13.136 108.521 13.136C107.929 13.136 107.393 13.264 106.913 13.52C106.449 13.76 106.081 14.136 105.809 14.648C105.553 15.16 105.425 15.816 105.425 16.616V23H101.681V10.088H105.257V13.664L104.585 12.584C105.049 11.72 105.713 11.056 106.577 10.592C107.441 10.128 108.425 9.896 109.529 9.896ZM124.609 23.192C123.217 23.192 121.977 22.912 120.889 22.352C119.801 21.776 118.945 20.984 118.321 19.976C117.713 18.968 117.409 17.824 117.409 16.544C117.409 15.248 117.713 14.104 118.321 13.112C118.945 12.104 119.801 11.32 120.889 10.76C121.977 10.184 123.217 9.896 124.609 9.896C125.969 9.896 127.153 10.184 128.161 10.76C129.169 11.32 129.913 12.128 130.393 13.184L127.489 14.744C127.153 14.136 126.729 13.688 126.217 13.4C125.721 13.112 125.177 12.968 124.585 12.968C123.945 12.968 123.369 13.112 122.857 13.4C122.345 13.688 121.937 14.096 121.633 14.624C121.345 15.152 121.201 15.792 121.201 16.544C121.201 17.296 121.345 17.936 121.633 18.464C121.937 18.992 122.345 19.4 122.857 19.688C123.369 19.976 123.945 20.12 124.585 20.12C125.177 20.12 125.721 19.984 126.217 19.712C126.729 19.424 127.153 18.968 127.489 18.344L130.393 19.928C129.913 20.968 129.169 21.776 128.161 22.352C127.153 22.912 125.969 23.192 124.609 23.192ZM138.792 23.192C137.32 23.192 136.024 22.904 134.904 22.328C133.8 21.752 132.944 20.968 132.336 19.976C131.728 18.968 131.424 17.824 131.424 16.544C131.424 15.248 131.72 14.104 132.312 13.112C132.92 12.104 133.744 11.32 134.784 10.76C135.824 10.184 137 9.896 138.312 9.896C139.576 9.896 140.712 10.168 141.72 10.712C142.744 11.24 143.552 12.008 144.144 13.016C144.736 14.008 145.032 15.2 145.032 16.592C145.032 16.736 145.024 16.904 145.008 17.096C144.992 17.272 144.976 17.44 144.96 17.6H134.472V15.416H142.992L141.552 16.064C141.552 15.392 141.416 14.808 141.144 14.312C140.872 13.816 140.496 13.432 140.016 13.16C139.536 12.872 138.976 12.728 138.336 12.728C137.696 12.728 137.128 12.872 136.632 13.16C136.152 13.432 135.776 13.824 135.504 14.336C135.232 14.832 135.096 15.424 135.096 16.112V16.688C135.096 17.392 135.248 18.016 135.552 18.56C135.872 19.088 136.312 19.496 136.872 19.784C137.448 20.056 138.12 20.192 138.888 20.192C139.576 20.192 140.176 20.088 140.688 19.88C141.216 19.672 141.696 19.36 142.128 18.944L144.12 21.104C143.528 21.776 142.784 22.296 141.888 22.664C140.992 23.016 139.96 23.192 138.792 23.192Z" fill="#81C784"/>
<path d="M19 4H30.5V14.5" stroke="#81C784" stroke-width="3"/>
</svg>
